<!-- This is a placeholder SVG for teams without logos -->
<svg width="64" height="64" viewBox="0 0 64 64" fill="none" xmlns="http://www.w3.org/2000/svg">
  <rect width="64" height="64" rx="8" fill="#1a2332"/>
  <rect x="4" y="4" width="56" height="56" rx="4" fill="#111823" stroke="#ff4654" stroke-width="2"/>
  
  <!-- Gaming controller icon -->
  <path d="M20 24h24c3.314 0 6 2.686 6 6v8c0 3.314-2.686 6-6 6H20c-3.314 0-6-2.686-6-6v-8c0-3.314 2.686-6 6-6z" fill="#ff4654" opacity="0.8"/>
  
  <!-- D-pad -->
  <rect x="22" y="28" width="2" height="8" fill="#ffffff"/>
  <rect x="18" y="30" width="8" height="2" fill="#ffffff"/>
  
  <!-- Action buttons -->
  <circle cx="42" cy="30" r="2" fill="#ffffff"/>
  <circle cx="38" cy="34" r="2" fill="#ffffff"/>
  <circle cx="46" cy="34" r="2" fill="#ffffff"/>
  <circle cx="42" cy="38" r="2" fill="#ffffff"/>
  
  <!-- Team text -->
  <text x="32" y="52" text-anchor="middle" fill="#ff4654" font-family="Arial, sans-serif" font-size="8" font-weight="bold">TEAM</text>
</svg>
